<?xml version="1.0" encoding="UTF-8" standalone="no"?>
<svg width="500px" height="500px" viewBox="0 0 500 500" version="1.1" xmlns="http://www.w3.org/2000/svg" xmlns:xlink="http://www.w3.org/1999/xlink" xmlns:sketch="http://www.bohemiancoding.com/sketch/ns">
    <!-- Generator: Sketch 3.4.2 (15855) - http://www.bohemiancoding.com/sketch -->
    <title>Rectangle 20</title>
    <desc>Created with Sketch.</desc>
    <defs></defs>
    <g id="Page-1" stroke="none" stroke-width="1" fill="none" fill-rule="evenodd" sketch:type="MSPage">
        <g id="user-icon" sketch:type="MSLayerGroup" transform="translate(101.000000, 1.000000)" fill="#FFFFFF">
            <g id="FFC47043-A370-406A-8239-B724AB19AA4C" sketch:type="MSShapeGroup">
                <g id="Symbols">
                    <g id="User-Icon">
                        <g id="Group-5">
                            <circle id="Oval-4" cx="9" cy="5" r="5"></circle>
                            <path d="M18,18 C18,18 17.9978232,16.8463 17.9935084,16.7699842 C17.8121817,13.5628694 13.8550335,11 9,11 C4.14768357,11 0.192247778,13.5600016 0.00679958246,16.7646003 C0.00228038694,16.8426933 0,18 0,18 L18,18 L18,18 Z" id="Oval-4"></path>
                        </g>
                    </g>
                </g>
            </g>
        </g>
        <g id="logo" sketch:type="MSLayerGroup" transform="translate(1.000000, 1.000000)">
            <g id="620AF021-7C61-46B4-A9D8-5649235897F4" sketch:type="MSShapeGroup">
                <g id="Symbols">
                    <g id="Logo">
                        <g id="Canadian_Tire_Logo">
                            <g id="Group">
                                <path d="M18.4744127,4.67082353 L19.5830265,5.99458824 L18.8622646,2.55694118 L20.6166772,3.61388235 L21.9152593,1.12517647 L23.2268783,3.60635294 L24.9680212,2.57388235 L24.277291,5.97952941 L24.433037,5.796 L25.3728677,4.67082353 L26.0307725,5.932 L28.0545397,5.42070588 L27.2955979,7.46635294 L27.8692275,7.46635294 L28.8979894,4.65364706 L26.3175873,5.31858824 L25.4741376,3.73317647 L25.2380741,4.02282353 L25.7271958,1.5 L23.4331429,2.88094118 L21.9152593,0 L20.3971429,2.86376471 L18.0865608,1.48305882 L18.6264339,4.04 L18.3566138,3.73317647 L17.5133968,5.31858824 L14.9327619,4.65364706 L15.9615238,7.46635294 L16.5516825,7.46635294 L15.7759788,5.42070588 L17.799746,5.932" id="Shape" fill="#FFFFFF"></path>
                                <path d="M0.360148148,10.3642353 L1.5069418,12.1030588 L18.6094392,36.6334118 L20.1610794,38.8663529 C21.0550476,40.0595294 22.7754709,40.0938824 23.6694392,38.8835294 L25.2043175,36.7185882 L42.3573333,12.0348235 L43.5045926,10.3983529 C44.482836,8.91529412 43.5886349,6.98870588 41.7504127,6.92094118 L38.6976508,6.92094118 L4.57669841,6.92094118 L2.16461376,6.92094118 C0.44442328,6.92117647 -0.56757672,8.84729412 0.360148148,10.3642353" id="Shape" fill="#FFFFFF"></path>
                                <path d="M0.360148148,10.3642353 L1.5069418,12.1030588 L18.6094392,36.6334118 L20.1610794,38.8663529 C21.0550476,40.0595294 22.7754709,40.0938824 23.6694392,38.8835294 L25.2043175,36.7185882 L42.3573333,12.0348235 L43.5045926,10.3983529 C44.482836,8.91529412 43.5886349,6.98870588 41.7504127,6.92094118 L38.6976508,6.92094118 L4.57669841,6.92094118 L2.16461376,6.92094118 C0.44442328,6.92117647 -0.56757672,8.84729412 0.360148148,10.3642353 L0.360148148,10.3642353 L0.360148148,10.3642353 Z" id="Shape" stroke="#FFFFFF" stroke-width="0.0714"></path>
                                <path d="M0.866031746,10.1256471 L1.94531217,11.7964706 L19.0815661,36.3778824 L20.5656931,38.5089412 C21.2405926,39.4804706 22.5896931,39.4804706 23.2643598,38.5258824 L24.714963,36.4458824 L41.9690159,11.6430588 L43.0485291,10.0745882 C43.8412275,8.89835294 43.0485291,7.48352941 41.7331852,7.46635294 L38.8322116,7.46635294 L4.50918519,7.46635294 L2.19860317,7.46635294 C0.882793651,7.44964706 0.0395767196,8.89835294 0.866031746,10.1256471" id="Shape" fill="#000000"></path>
                                <path d="M0.866031746,10.1256471 L1.94531217,11.7964706 L19.0815661,36.3778824 L20.5656931,38.5089412 C21.2405926,39.4804706 22.5896931,39.4804706 23.2643598,38.5258824 L24.714963,36.4458824 L41.9690159,11.6430588 L43.0485291,10.0745882 C43.8412275,8.89835294 43.0485291,7.48352941 41.7331852,7.46635294 L38.8322116,7.46635294 L4.50918519,7.46635294 L2.19860317,7.46635294 C0.882793651,7.44964706 0.0395767196,8.89835294 0.866031746,10.1256471 L0.866031746,10.1256471 L0.866031746,10.1256471 Z" id="Shape" stroke="#000000" stroke-width="0.071"></path>
                                <path d="M1.30463492,9.76776471 L2.36738624,11.3870588 L19.6046772,36.1049412 L21.0550476,38.2016471 C21.5609312,38.8324706 22.3201058,38.8496471 22.8089947,38.2016471 L24.242836,36.1562353 L41.5813968,11.2338824 L42.6439153,9.69952941 C43.0992804,9.01788235 42.6439153,8.02894118 41.766709,8.02894118 L38.9164868,8.02894118 L4.44167196,8.02894118 L2.18160847,8.02894118 C1.15261376,8.04611765 0.849037037,9.11976471 1.30463492,9.76776471" id="Shape" fill="#FFFFFF"></path>
                                <path d="M1.30463492,9.76776471 L2.36738624,11.3870588 L19.6046772,36.1049412 L21.0550476,38.2016471 C21.5609312,38.8324706 22.3201058,38.8496471 22.8089947,38.2016471 L24.242836,36.1562353 L41.5813968,11.2338824 L42.6439153,9.69952941 C43.0992804,9.01788235 42.6439153,8.02894118 41.766709,8.02894118 L38.9164868,8.02894118 L4.44167196,8.02894118 L2.18160847,8.02894118 C1.15261376,8.04611765 0.849037037,9.11976471 1.30463492,9.76776471 L1.30463492,9.76776471 L1.30463492,9.76776471 Z" id="Shape" stroke="#FFFFFF" stroke-width="0.0714"></path>
                                <path d="M1.7602328,9.42682353 L2.772,10.9611765 L20.1613122,35.9004706 L21.5276402,37.8778824 C21.7299471,38.1508235 22.1515556,38.1675294 22.3538624,37.8778824 L23.7199577,35.9517647 L41.1767831,10.8247059 L42.1887831,9.37552941 C42.3573333,9.10258824 42.1887831,8.59129412 41.7669418,8.59129412 L39.0515132,8.59129412 L4.30687831,8.59129412 L2.16461376,8.59129412 C1.7602328,8.59152941 1.54069841,9.08588235 1.7602328,9.42682353" id="Shape" fill="#ED1B2D"></path>
                                <path d="M1.7602328,9.42682353 L2.772,10.9611765 L20.1613122,35.9004706 L21.5276402,37.8778824 C21.7299471,38.1508235 22.1515556,38.1675294 22.3538624,37.8778824 L23.7199577,35.9517647 L41.1767831,10.8247059 L42.1887831,9.37552941 C42.3573333,9.10258824 42.1887831,8.59129412 41.7669418,8.59129412 L39.0515132,8.59129412 L4.30687831,8.59129412 L2.16461376,8.59129412 C1.7602328,8.59152941 1.54069841,9.08588235 1.7602328,9.42682353 L1.7602328,9.42682353 L1.7602328,9.42682353 Z" id="Shape" stroke="#ED1B2D" stroke-width="0.0714"></path>
                                <path id="Shape" fill="#FFFFFF" d="M33.9915132,16.1430588 L33.9915132,16.1491115 C33.9922989,16.1606904 33.9915132,16.1599009 33.9915132,16.1430588"></path>
                                <path d="M27.1775661,7.79035294 L27.3125926,7.41529412 L28.0545397,5.42070588 L26.0307725,5.932 L25.3728677,4.67082353 L24.433037,5.796 L24.2765926,5.98352941 L24.277291,5.97952941 L24.9680212,2.57388235 L23.2268783,3.60635294 L23.2140741,3.61388235 L21.9152593,1.14211765 L20.6166772,3.61388235 L18.8622646,2.55694118 L19.5879153,6.00047059 L19.5830265,5.99458824 L18.4744127,4.67082353 L17.799746,5.932 L15.7759788,5.42070588 L16.5349206,7.41529412 L16.6699471,7.79035294 L15.7927407,8.65976471 L18.6264339,10.9268235 L17.698709,12.5976471 L21.1225608,12.0178824 L21.1225608,13.1602353 L22.7081905,13.1602353 L22.7081905,12.0178824 L26.1318095,12.5804706 L25.2210794,10.9268235 L28.0377778,8.67670588" id="Shape" fill="#000000"></path>
                                <path d="M25.1489101,10.9122353 L25.1863915,10.8823529 L27.9537354,8.67152941 L27.137291,7.83011765 L27.1128466,7.80470588 L27.1249524,7.77105882 C27.1249524,7.77105882 27.259746,7.396 27.2599788,7.39552941 L27.9644444,5.50235294 L26.0442751,5.98705882 L26.0014392,5.99788235 L25.9807196,5.95835294 L25.3621587,4.77176471 C25.166836,5.00564706 24.475873,5.83247059 24.475873,5.83247059 L24.3194286,6.02 C24.3194286,6.02 24.1771852,6.19035294 24.1778836,6.18658824 L24.2221164,5.96823529 L24.8874709,2.68752941 C24.5105608,2.91105882 23.2548148,3.65529412 23.2550476,3.65529412 L23.2422434,3.66282353 L23.1912593,3.69294118 L23.1640212,3.64047059 L21.9152593,1.26329412 L20.6662646,3.64047059 L20.638328,3.69317647 L20.5878095,3.66258824 L18.9439788,2.67247059 L19.6426243,5.98870588 L19.688254,6.20635294 L19.5448466,6.03741176 C19.5448466,6.03741176 19.5399577,6.032 19.5397249,6.03152941 L18.4846561,4.77105882 L17.8493333,5.95905882 L17.8288466,5.99788235 L17.7862434,5.98705882 L15.8670053,5.50258824 C16.0206561,5.90588235 16.5873016,7.39529412 16.5877672,7.396 L16.7225608,7.77105882 L16.7348995,7.80541176 L16.7090582,7.83105882 L15.8774815,8.65529412 L18.6611217,10.8823529 L18.698836,10.9124706 L18.6750899,10.9545882 L17.8048677,12.5218824 L21.1130159,11.9618824 L21.1786667,11.9508235 L21.1786667,12.0178824 L21.1786667,13.1032941 L22.6518519,13.1032941 L22.6518519,12.0178824 L22.6518519,11.9510588 L22.717037,11.9616471 L26.026582,12.5056471 L25.1719577,10.9548235" id="Shape" fill="#000000"></path>
                                <path d="M22.4718942,11.4896471 C22.2863492,11.4552941 22.2355979,11.5068235 22.2355979,11.6771765 L22.2355979,12.6825882 L21.6116825,12.6825882 L21.6116825,11.6771765 C21.6116825,11.5235294 21.5776931,11.4552941 21.392381,11.4896471 L18.6094392,11.9496471 L19.0478095,11.1656471 C19.1658413,10.9778824 19.1658413,10.7051765 18.9635344,10.5858824 L16.5181587,8.64258824 L17.0070476,8.11411765 C17.158836,8.012 17.1925926,7.79035294 17.0913228,7.58564706 L17.0238095,7.41505882 L16.5514497,6.10235294 L17.7492275,6.42635294 C17.9515344,6.49458824 18.1203175,6.35811765 18.2045926,6.20447059 L18.5586878,5.52282353 L19.823746,7.04 C20.0937989,7.31270588 20.295873,7.17647059 20.2285926,6.76729412 L19.5539259,3.54588235 L20.481418,4.09129412 C20.666963,4.19341176 20.8862646,4.17623529 20.9707725,3.98894118 L21.9152593,2.16494118 L22.859746,3.98894118 C22.9437884,4.15929412 23.1635556,4.21035294 23.3488677,4.108 L24.2935873,3.52870588 L23.6019259,6.78447059 C23.5346455,7.19364706 23.7537143,7.31294118 24.0235344,7.04023529 L25.2718307,5.54023529 L25.6429206,6.23905882 C25.7271958,6.39247059 25.895746,6.47764706 26.0982857,6.40964706 L27.2958307,6.12 L26.806709,7.41552941 L26.7224339,7.62 C26.6381587,7.84164706 26.6884444,8.01223529 26.8237037,8.11435294 L27.3130582,8.64282353 L24.8674497,10.5861176 C24.6649101,10.7054118 24.6649101,10.9611765 24.7831746,11.1658824 L25.221545,11.9498824" id="Shape" fill="#009D57"></path>
                                <path d="M22.4718942,11.4896471 C22.2863492,11.4552941 22.2355979,11.5068235 22.2355979,11.6771765 L22.2355979,12.6825882 L21.6116825,12.6825882 L21.6116825,11.6771765 C21.6116825,11.5235294 21.5776931,11.4552941 21.392381,11.4896471 L18.6094392,11.9496471 L19.0478095,11.1656471 C19.1658413,10.9778824 19.1658413,10.7051765 18.9635344,10.5858824 L16.5181587,8.64258824 L17.0070476,8.11411765 C17.158836,8.012 17.1925926,7.79035294 17.0913228,7.58564706 L17.0238095,7.41505882 L16.5514497,6.10235294 L17.7492275,6.42635294 C17.9515344,6.49458824 18.1203175,6.35811765 18.2045926,6.20447059 L18.5586878,5.52282353 L19.823746,7.04 C20.0937989,7.31270588 20.295873,7.17647059 20.2285926,6.76729412 L19.5539259,3.54588235 L20.481418,4.09129412 C20.666963,4.19341176 20.8862646,4.17623529 20.9707725,3.98894118 L21.9152593,2.16494118 L22.859746,3.98894118 C22.9437884,4.15929412 23.1635556,4.21035294 23.3488677,4.108 L24.2935873,3.52870588 L23.6019259,6.78447059 C23.5346455,7.19364706 23.7537143,7.31294118 24.0235344,7.04023529 L25.2718307,5.54023529 L25.6429206,6.23905882 C25.7271958,6.39247059 25.895746,6.47764706 26.0982857,6.40964706 L27.2958307,6.12 L26.806709,7.41552941 L26.7224339,7.62 C26.6381587,7.84164706 26.6884444,8.01223529 26.8237037,8.11435294 L27.3130582,8.64282353 L24.8674497,10.5861176 C24.6649101,10.7054118 24.6649101,10.9611765 24.7831746,11.1658824 L25.221545,11.9498824 L22.4718942,11.4896471 L22.4718942,11.4896471 L22.4718942,11.4896471 Z" id="Shape" stroke="#009D57" stroke-width="0.4826"></path>
                            </g>
                        </g>
                    </g>
                </g>
            </g>
        </g>
        <g id="filter-icon" sketch:type="MSLayerGroup" transform="translate(51.000000, 1.000000)" fill="#FFFFFF">
            <g id="59811C3C-6B33-432A-B763-74577F9CBD84" sketch:type="MSShapeGroup">
                <g id="Symbols">
                    <g id="Filter-Icon">
                        <g id="filter">
                            <g id="Group">
                                <path d="M4,4.7 L4,0 L2,0 L2,4.7 C0.8,5.1 0,6.2 0,7.5 C0,8.8 0.8,9.9 2,10.3 L2,22 L4,22 L4,10.3 C5.2,9.9 6,8.8 6,7.5 C6,6.2 5.2,5.1 4,4.7 L4,4.7 L4,4.7 Z" id="Shape"></path>
                                <path d="M20,4.7 L20,0 L18,0 L18,4.7 C16.8,5.1 16,6.2 16,7.5 C16,8.8 16.8,9.9 18,10.3 L18,22 L20,22 L20,10.3 C21.2,9.9 22,8.8 22,7.5 C22,6.2 21.2,5.1 20,4.7 L20,4.7 L20,4.7 Z" id="Shape"></path>
                                <path d="M12,11.7 L12,0 L10,0 L10,11.7 C8.8,12.1 8,13.2 8,14.5 C8,15.8 8.8,16.9 10,17.3 L10,22 L12,22 L12,17.3 C13.2,16.9 14,15.8 14,14.5 C14,13.2 13.2,12.1 12,11.7 L12,11.7 L12,11.7 Z" id="Shape"></path>
                            </g>
                        </g>
                    </g>
                </g>
            </g>
        </g>
    </g>
</svg>