<?xml version="1.0" encoding="UTF-8" standalone="no"?>
<svg width="24px" height="24px" viewBox="0 0 24 24" version="1.1" xmlns="http://www.w3.org/2000/svg" xmlns:xlink="http://www.w3.org/1999/xlink">
    <!-- Generator: sketchtool 39.1 (31720) - http://www.bohemiancoding.com/sketch -->
    <title>60C88BB3-7585-4CF8-8188-C9948F560329</title>
    <desc>Created with sketchtool.</desc>
    <defs></defs>
    <g id="Symbols" stroke="none" stroke-width="1" fill="none" fill-rule="evenodd">
        <g id="Refresh-Icon" fill="#333333">
            <g id="refresh-icon" transform="translate(5.000000, 7.000000)">
                <path d="M15.6,0.8 C15.2,0.4 14.6,0.3 14.2,0.7 C13.8,1.1 13.7,1.7 14.1,2.1 C14.9,3 15.3,4.1 15.3,5.3 C15.3,7.8 12.8,10 10,10 L4,10 L5.9,8.2 C6.3,7.8 6.3,7.2 5.9,6.8 C5.5,6.4 4.9,6.4 4.5,6.8 L0.9,10.2 L0.8,10.3 L0.7,10.5 C0.5,10.9 0.6,11.3 0.9,11.7 L4.5,15.3 C4.7,15.5 5,15.6 5.2,15.6 C5.4,15.6 5.7,15.5 5.9,15.3 C6.3,14.9 6.3,14.3 5.9,13.9 L4,12 L10,12 C14,12 17.3,9 17.3,5.3 C17.3,3.6 16.7,2 15.6,0.8 L15.6,0.8 Z" id="Shape"></path>
            </g>
            <g id="refresh-icon" transform="translate(10.000000, 9.000000) scale(-1, -1) translate(-10.000000, -9.000000) translate(1.000000, 1.000000)">
                <path d="M15.6,0.8 C15.2,0.4 14.6,0.3 14.2,0.7 C13.8,1.1 13.7,1.7 14.1,2.1 C14.9,3 15.3,4.1 15.3,5.3 C15.3,7.8 12.8,10 10,10 L4,10 L5.9,8.2 C6.3,7.8 6.3,7.2 5.9,6.8 C5.5,6.4 4.9,6.4 4.5,6.8 L0.9,10.2 L0.8,10.3 L0.7,10.5 C0.5,10.9 0.6,11.3 0.9,11.7 L4.5,15.3 C4.7,15.5 5,15.6 5.2,15.6 C5.4,15.6 5.7,15.5 5.9,15.3 C6.3,14.9 6.3,14.3 5.9,13.9 L4,12 L10,12 C14,12 17.3,9 17.3,5.3 C17.3,3.6 16.7,2 15.6,0.8 L15.6,0.8 Z" id="Shape"></path>
            </g>
        </g>
    </g>
</svg>