<?xml version="1.0" encoding="UTF-8" standalone="no"?>
<svg width="24px" height="24px" viewBox="0 0 24 24" version="1.1" xmlns="http://www.w3.org/2000/svg" xmlns:xlink="http://www.w3.org/1999/xlink">
    <!-- Generator: sketchtool 39.1 (31720) - http://www.bohemiancoding.com/sketch -->
    <title>DF44E2AB-A5E5-40D1-BC96-91E5FAA0C8D4</title>
    <desc>Created with sketchtool.</desc>
    <defs></defs>
    <g id="Symbols" stroke="none" stroke-width="1" fill="none" fill-rule="evenodd">
        <g id="Print-Icon" fill="#333333">
            <g id="print" transform="translate(1.000000, 1.000000)">
                <g id="Group">
                    <path d="M21,6 L18,6 L18,1 C18,0.4 17.6,0 17,0 L5,0 C4.5,0 4,0.4 4,1 L4,6 L1,6 C0.4,6 0,6.4 0,7 L0,17 C0,17.6 0.4,18 1,18 L4,18 L4,20 C4,20.6 4.4,21 5,21 L17,21 C17.6,21 18,20.6 18,20 L18,18 L21,18 C21.6,18 22,17.6 22,17 L22,7 C22,6.4 21.6,6 21,6 L21,6 Z M4,16 L2,16 L2,14 L4,14 L4,16 L4,16 Z M16,19 L6,19 L6,14 L16,14 L16,19 L16,19 Z M16,6 L6,6 L6,2 L16,2 L16,6 L16,6 Z M20,16 L18,16 L18,14 L20,14 L20,16 L20,16 Z M18.5,11 C17.7,11 17,10.3 17,9.5 C17,8.7 17.7,8 18.5,8 C19.3,8 20,8.7 20,9.5 C20,10.3 19.3,11 18.5,11 L18.5,11 Z" id="Shape"></path>
                    <rect id="Rectangle-path" x="7" y="16" width="8" height="2"></rect>
                </g>
            </g>
        </g>
    </g>
</svg>