<?xml version="1.0" encoding="UTF-8" standalone="no"?>
<svg width="500px" height="500px" viewBox="0 0 500 500" version="1.1" xmlns="http://www.w3.org/2000/svg" xmlns:xlink="http://www.w3.org/1999/xlink" xmlns:sketch="http://www.bohemiancoding.com/sketch/ns">
    <!-- Generator: Sketch 3.4.2 (15855) - http://www.bohemiancoding.com/sketch -->
    <title>Rectangle 20</title>
    <desc>Created with Sketch.</desc>
    <defs>
        <rect id="path-1" x="0" y="0" width="16" height="16" rx="4"></rect>
        <rect id="path-3" x="0" y="0" width="16" height="16" rx="4"></rect>
        <rect id="path-5" x="0" y="0" width="16" height="16" rx="4"></rect>
        <rect id="path-7" x="0" y="0" width="16" height="16" rx="4"></rect>
    </defs>
    <g id="Page-1" stroke="none" stroke-width="1" fill="none" fill-rule="evenodd" sketch:type="MSPage">
        <g id="filter-sprite" sketch:type="MSLayerGroup" transform="translate(1.000000, 1.000000)">
            <g id="checkbox-checked-icon-only" transform="translate(150.000000, 0.000000)">
                <g id="FB3DE9E0-35EA-429D-8963-F52A29B117C4">
                    <g id="Symbols">
                        <g id="checkbox-checked">
                            <g id="Rectangle-91-Clipped">
                                <mask id="mask-2" sketch:name="path-1" fill="white">
                                    <use xlink:href="#path-1"></use>
                                </mask>
                                <g id="path-1"></g>
                                <g id="Rectangle-91" mask="url(#mask-2)" stroke="#7D7D7D" stroke-width="2" fill="#FFFFFF" sketch:type="MSShapeGroup">
                                    <rect id="path-1" x="0" y="0" width="16" height="16" rx="4"></rect>
                                </g>
                            </g>
                            <path d="M3,7.80957031 L5.03076172,7.80957031 L7.08398438,10.666748 L13.4592285,3 L13.3496094,5.53833008 L7.42260742,13.0234375 L3,7.80957031 Z" id="Path-147" fill="#454545" sketch:type="MSShapeGroup"></path>
                        </g>
                    </g>
                </g>
            </g>
            <g id="radiobutton-checked" transform="translate(250.000000, 0.000000)" sketch:type="MSShapeGroup">
                <g id="18D74284-3C73-43D2-B599-9D4486E69EC8">
                    <g id="Symbols">
                        <g id="radiobutton-checked">
                            <circle id="Oval-4" stroke="#7D7D7D" fill="#FFFFFF" cx="8" cy="8" r="8"></circle>
                            <circle id="Oval" fill="#454545" cx="8" cy="8" r="5"></circle>
                        </g>
                    </g>
                </g>
            </g>
            <g id="radiobutton-unchecked" transform="translate(200.000000, 0.000000)" stroke="#7D7D7D" fill="#FFFFFF" sketch:type="MSShapeGroup">
                <g id="B5BCA354-68E9-404C-9642-1AA82BC71F09">
                    <g id="Symbols">
                        <g id="radiobutton-unchecked">
                            <circle id="Oval-4" cx="8" cy="8" r="8"></circle>
                        </g>
                    </g>
                </g>
            </g>
            <g id="checkbox-checked-icon-only" transform="translate(100.000000, 0.000000)">
                <g id="FB3DE9E0-35EA-429D-8963-F52A29B117C4">
                    <g id="Symbols">
                        <g id="checkbox-checked">
                            <g id="Rectangle-91-Clipped">
                                <mask id="mask-4" sketch:name="path-1" fill="white">
                                    <use xlink:href="#path-3"></use>
                                </mask>
                                <g id="path-1"></g>
                                <g id="Rectangle-91" mask="url(#mask-4)" stroke="#7D7D7D" stroke-width="2" fill="#FFFFFF" sketch:type="MSShapeGroup">
                                    <rect id="path-1" x="0" y="0" width="16" height="16" rx="4"></rect>
                                </g>
                            </g>
                        </g>
                    </g>
                </g>
            </g>
            <g id="list-selected-1" transform="translate(350.000000, 0.000000)" fill="#333333" sketch:type="MSShapeGroup">
                <g id="Layer_2">
                    <g id="Group">
                        <rect id="Rectangle-path" x="4" y="0" width="10" height="2"></rect>
                        <rect id="Rectangle-path" x="4" y="5" width="10" height="2"></rect>
                        <rect id="Rectangle-path" x="4" y="10" width="10" height="2"></rect>
                        <path d="M2,0 L1,0 C0.4,0 0,0.4 0,1 C0,1.6 0.4,2 1,2 L2,2 C2.6,2 3,1.6 3,1 C3,0.4 2.6,0 2,0 L2,0 Z" id="Shape"></path>
                        <path d="M2,5 L1,5 C0.4,5 0,5.4 0,6 C0,6.6 0.4,7 1,7 L2,7 C2.6,7 3,6.6 3,6 C3,5.4 2.6,5 2,5 L2,5 Z" id="Shape"></path>
                        <path d="M2,10 L1,10 C0.4,10 0,10.4 0,11 C0,11.6 0.4,12 1,12 L2,12 C2.6,12 3,11.6 3,11 C3,10.4 2.6,10 2,10 L2,10 Z" id="Shape"></path>
                    </g>
                </g>
            </g>
            <g id="map-selected-1" transform="translate(300.000000, 0.000000)" fill="#333333" sketch:type="MSShapeGroup">
                <g id="Layer_2">
                    <path d="M8,4 L4,0 L0,4 L0,9 L0,16 L4,12 L8,16 L12,12 L12,0 L8,4 L8,4 Z M7,13.6 L5,11.6 L5,2.4 L7,4.4 L7,13.6 L7,13.6 Z" id="Shape"></path>
                </g>
            </g>
            <g id="Rectangle-14-+-Rectangle-15-+-Rectangle-15" sketch:type="MSShapeGroup">
                <rect id="Rectangle-14" stroke="#7D7D7D" x="0" y="0" width="19" height="19" rx="4"></rect>
                <rect id="Rectangle-15" fill="#7D7D7D" x="5" y="9" width="9" height="1"></rect>
                <rect id="Rectangle-15" fill="#7D7D7D" transform="translate(9.500000, 9.500000) rotate(-270.000000) translate(-9.500000, -9.500000) " x="5" y="9" width="9" height="1"></rect>
            </g>
            <g id="Rectangle-14-+-Rectangle-15-+-Rectangle-15" transform="translate(50.000000, 0.000000)" sketch:type="MSShapeGroup">
                <rect id="Rectangle-14" stroke="#7D7D7D" x="0" y="0" width="19" height="19" rx="4"></rect>
                <rect id="Rectangle-15" fill="#7D7D7D" x="5" y="9" width="9" height="1"></rect>
            </g>
            <g id="radiobutton-checked" transform="translate(250.000000, 50.000000)" sketch:type="MSShapeGroup">
                <g id="18D74284-3C73-43D2-B599-9D4486E69EC8">
                    <g id="Symbols">
                        <g id="radiobutton-checked">
                            <circle id="Oval-4" stroke="#ED1B2D" fill="#FFFFFF" cx="8" cy="8" r="8"></circle>
                            <circle id="Oval" fill="#ED1B2D" cx="8" cy="8" r="5"></circle>
                        </g>
                    </g>
                </g>
            </g>
            <g id="radiobutton-unchecked" transform="translate(200.000000, 50.000000)" stroke="#ED1B2D" fill="#FFFFFF" sketch:type="MSShapeGroup">
                <g id="B5BCA354-68E9-404C-9642-1AA82BC71F09">
                    <g id="Symbols">
                        <g id="radiobutton-unchecked">
                            <circle id="Oval-4" cx="8" cy="8" r="8"></circle>
                        </g>
                    </g>
                </g>
            </g>
            <g id="checkbox-checked-icon-only" transform="translate(150.000000, 50.000000)">
                <g id="FB3DE9E0-35EA-429D-8963-F52A29B117C4">
                    <g id="Symbols">
                        <g id="checkbox-checked">
                            <g id="Rectangle-91-Clipped">
                                <mask id="mask-6" sketch:name="path-1" fill="white">
                                    <use xlink:href="#path-5"></use>
                                </mask>
                                <g id="path-1"></g>
                                <g id="Rectangle-91" mask="url(#mask-6)" stroke="#ED1B2D" stroke-width="2" fill="#FFFFFF" sketch:type="MSShapeGroup">
                                    <rect id="path-1" x="0" y="0" width="16" height="16" rx="4"></rect>
                                </g>
                            </g>
                            <path d="M3,7.80957031 L5.03076172,7.80957031 L7.08398438,10.666748 L13.4592285,3 L13.3496094,5.53833008 L7.42260742,13.0234375 L3,7.80957031 Z" id="Path-147" fill="#ED1B2D" sketch:type="MSShapeGroup"></path>
                        </g>
                    </g>
                </g>
            </g>
            <g id="checkbox-checked-icon-only" transform="translate(100.000000, 50.000000)">
                <g id="FB3DE9E0-35EA-429D-8963-F52A29B117C4">
                    <g id="Symbols">
                        <g id="checkbox-checked">
                            <g id="Rectangle-91-Clipped">
                                <mask id="mask-8" sketch:name="path-1" fill="white">
                                    <use xlink:href="#path-7"></use>
                                </mask>
                                <g id="path-1"></g>
                                <g id="Rectangle-91" mask="url(#mask-8)" stroke="#ED1B2D" stroke-width="2" fill="#FFFFFF" sketch:type="MSShapeGroup">
                                    <rect id="path-1" x="0" y="0" width="16" height="16" rx="4"></rect>
                                </g>
                            </g>
                        </g>
                    </g>
                </g>
            </g>
            <g id="map-selected-1" transform="translate(300.000000, 50.000000)" fill="#ED1B2D" sketch:type="MSShapeGroup">
                <g id="Layer_2">
                    <path d="M8,4 L4,0 L0,4 L0,9 L0,16 L4,12 L8,16 L12,12 L12,0 L8,4 L8,4 Z M7,13.6 L5,11.6 L5,2.4 L7,4.4 L7,13.6 L7,13.6 Z" id="Shape"></path>
                </g>
            </g>
            <g id="map-selected-1" transform="translate(300.000000, 100.000000)" fill="#BC0817" sketch:type="MSShapeGroup">
                <g id="Layer_2">
                    <path d="M8,4 L4,0 L0,4 L0,9 L0,16 L4,12 L8,16 L12,12 L12,0 L8,4 L8,4 Z M7,13.6 L5,11.6 L5,2.4 L7,4.4 L7,13.6 L7,13.6 Z" id="Shape"></path>
                </g>
            </g>
            <g id="list-selected-1" transform="translate(350.000000, 50.000000)" fill="#ED1B2D" sketch:type="MSShapeGroup">
                <g id="Layer_2">
                    <g id="Group">
                        <rect id="Rectangle-path" x="4" y="0" width="10" height="2"></rect>
                        <rect id="Rectangle-path" x="4" y="5" width="10" height="2"></rect>
                        <rect id="Rectangle-path" x="4" y="10" width="10" height="2"></rect>
                        <path d="M2,0 L1,0 C0.4,0 0,0.4 0,1 C0,1.6 0.4,2 1,2 L2,2 C2.6,2 3,1.6 3,1 C3,0.4 2.6,0 2,0 L2,0 Z" id="Shape"></path>
                        <path d="M2,5 L1,5 C0.4,5 0,5.4 0,6 C0,6.6 0.4,7 1,7 L2,7 C2.6,7 3,6.6 3,6 C3,5.4 2.6,5 2,5 L2,5 Z" id="Shape"></path>
                        <path d="M2,10 L1,10 C0.4,10 0,10.4 0,11 C0,11.6 0.4,12 1,12 L2,12 C2.6,12 3,11.6 3,11 C3,10.4 2.6,10 2,10 L2,10 Z" id="Shape"></path>
                    </g>
                </g>
            </g>
            <g id="list-selected-1" transform="translate(350.000000, 100.000000)" fill="#BC0817" sketch:type="MSShapeGroup">
                <g id="Layer_2">
                    <g id="Group">
                        <rect id="Rectangle-path" x="4" y="0" width="10" height="2"></rect>
                        <rect id="Rectangle-path" x="4" y="5" width="10" height="2"></rect>
                        <rect id="Rectangle-path" x="4" y="10" width="10" height="2"></rect>
                        <path d="M2,0 L1,0 C0.4,0 0,0.4 0,1 C0,1.6 0.4,2 1,2 L2,2 C2.6,2 3,1.6 3,1 C3,0.4 2.6,0 2,0 L2,0 Z" id="Shape"></path>
                        <path d="M2,5 L1,5 C0.4,5 0,5.4 0,6 C0,6.6 0.4,7 1,7 L2,7 C2.6,7 3,6.6 3,6 C3,5.4 2.6,5 2,5 L2,5 Z" id="Shape"></path>
                        <path d="M2,10 L1,10 C0.4,10 0,10.4 0,11 C0,11.6 0.4,12 1,12 L2,12 C2.6,12 3,11.6 3,11 C3,10.4 2.6,10 2,10 L2,10 Z" id="Shape"></path>
                    </g>
                </g>
            </g>
        </g>
    </g>
</svg>