<?xml version="1.0" encoding="UTF-8" standalone="no"?>
<svg width="500px" height="500px" viewBox="0 0 500 500" version="1.1" xmlns="http://www.w3.org/2000/svg" xmlns:xlink="http://www.w3.org/1999/xlink">
    <!-- Generator: Sketch 39.1 (31720) - http://www.bohemiancoding.com/sketch -->
    <title>Rectangle 20</title>
    <desc>Created with Sketch.</desc>
    <defs></defs>
    <g id="Page-1" stroke="none" stroke-width="1" fill="none" fill-rule="evenodd">
        <path d="M14.5808399,11.0041882 L1.99959612,11.0041882 C1.44753443,11.0041882 1,10.560485 1,10.0045523 C1,9.45246863 1.45454338,9.00491639 1.99959612,9.00491639 L14.5808399,9.00491639 L8.2848338,2.70891027 C7.89360572,2.31768218 7.89019824,1.6867836 8.28330201,1.29367982 C8.67368412,0.90329772 9.30372657,0.900405724 9.69853246,1.29521161 L17.6011962,9.19787538 C17.6383827,9.2259153 17.6740741,9.25688142 17.7079597,9.29076706 C17.9059119,9.4887193 18.0033189,9.74697035 18.0012901,10.0045523 C18.0033189,10.2621342 17.9059119,10.5203853 17.7079597,10.7183375 C17.6740741,10.7522232 17.6383827,10.7831893 17.6011962,10.8112292 L9.69853246,18.713893 C9.30372657,19.1086989 8.67368412,19.1058069 8.28330201,18.7154248 C7.89019824,18.322321 7.89360572,17.6914224 8.2848338,17.3001943 L14.5808399,11.0041882 Z" id="Rectangle-24" fill="#454545"></path>
        <path d="M16.2353312,60.8093031 L1.48960962,60.8093031 C1.21920569,60.8093031 1,60.5777638 1,60.310153 C1,60.03448 1.21457747,59.8110028 1.48960962,59.8110028 L16.4001623,59.8110028 L8.44540413,51.8562447 C8.24797835,51.6588189 8.2516562,51.3350506 8.44088559,51.1458212 C8.63581585,50.950891 8.95720207,50.9562328 9.15130904,51.1503398 L17.8484325,59.8474633 C17.9527463,59.951777 18.0009171,60.0913624 17.9952389,60.2277375 C17.9986817,60.3104241 17.9823284,60.394291 17.9456678,60.4707605 C17.9040594,60.5976786 17.8141998,60.7016501 17.6969276,60.7595166 L9.15130904,69.3051351 C8.95720207,69.4992421 8.63581585,69.5045839 8.44088559,69.3096537 C8.2516562,69.1204243 8.24797835,68.796656 8.44540413,68.5992302 L16.2353312,60.8093031 Z" id="Rectangle-24" fill="#454545"></path>
        <path d="M64.5808399,11.0041882 L51.9995961,11.0041882 C51.4475344,11.0041882 51,10.560485 51,10.0045523 C51,9.45246863 51.4545434,9.00491639 51.9995961,9.00491639 L64.5808399,9.00491639 L58.2848338,2.70891027 C57.8936057,2.31768218 57.8901982,1.6867836 58.283302,1.29367982 C58.6736841,0.90329772 59.3037266,0.900405724 59.6985325,1.29521161 L67.6011962,9.19787538 C67.6383827,9.2259153 67.6740741,9.25688142 67.7079597,9.29076706 C67.9059119,9.4887193 68.0033189,9.74697035 68.0012901,10.0045523 C68.0033189,10.2621342 67.9059119,10.5203853 67.7079597,10.7183375 C67.6740741,10.7522232 67.6383827,10.7831893 67.6011962,10.8112292 L59.6985325,18.713893 C59.3037266,19.1086989 58.6736841,19.1058069 58.283302,18.7154248 C57.8901982,18.322321 57.8936057,17.6914224 58.2848338,17.3001943 L64.5808399,11.0041882 Z" id="Rectangle-24" fill="#FFFFFF"></path>
        <path d="M66.2353312,60.8093031 L51.4896096,60.8093031 C51.2192057,60.8093031 51,60.5777638 51,60.310153 C51,60.03448 51.2145775,59.8110028 51.4896096,59.8110028 L66.4001623,59.8110028 L58.4454041,51.8562447 C58.2479784,51.6588189 58.2516562,51.3350506 58.4408856,51.1458212 C58.6358159,50.950891 58.9572021,50.9562328 59.151309,51.1503398 L67.8484325,59.8474633 C67.9527463,59.951777 68.0009171,60.0913624 67.9952389,60.2277375 C67.9986817,60.3104241 67.9823284,60.394291 67.9456678,60.4707605 C67.9040594,60.5976786 67.8141998,60.7016501 67.6969276,60.7595166 L59.151309,69.3051351 C58.9572021,69.4992421 58.6358159,69.5045839 58.4408856,69.3096537 C58.2516562,69.1204243 58.2479784,68.796656 58.4454041,68.5992302 L66.2353312,60.8093031 Z" id="Rectangle-24" fill="#FFFFFF"></path>
    </g>
</svg>